<svg width="40" height="40" viewBox="0 0 512 512" xmlns="http://www.w3.org/2000/svg">
  <path d="M256 64C150 64 64 150 64 256s86 192 192 192 192-86 192-192S362 64 256 64z" fill="#3B99FC"/>
  <path d="M256,93.9c-89.5,0-162.1,72.6-162.1,162.1s72.6,162.1,162.1,162.1S418.1,345.5,418.1,256S345.5,93.9,256,93.9z M345.9,265.2
    c-2.7,2.7-5.9,4-9.2,4c-3.3,0-6.5-1.3-9.2-4l-31.2-31.2v66.7c0,7.1-5.8,12.9-12.9,12.9c-7.1,0-12.9-5.8-12.9-12.9v-66.7
    l-31.2,31.2c-5.1,5.1-13.3,5.1-18.3,0c-5.1-5.1-5.1-13.3,0-18.3l54.3-54.3c0.7-0.7,1.5-1.3,2.3-1.9c0.2-0.1,0.4-0.3,0.6-0.4
    c0.3-0.2,0.6-0.3,0.9-0.5c0.2-0.1,0.5-0.2,0.7-0.3c0.3-0.1,0.6-0.2,0.9-0.3c0.2-0.1,0.5-0.2,0.7-0.2c0.3-0.1,0.6-0.1,0.9-0.2
    c0.3,0,0.5-0.1,0.8-0.1c0.3,0,0.6-0.1,0.9-0.1c0.3,0,0.6,0,0.9,0c0.3,0,0.6,0,0.9,0c0.3,0,0.6,0,0.9,0.1c0.3,0,0.5,0.1,0.8,0.1
    c0.3,0,0.6,0.1,0.9,0.2c0.2,0.1,0.5,0.1,0.7,0.2c0.3,0.1,0.6,0.2,0.9,0.3c0.2,0.1,0.5,0.2,0.7,0.3c0.3,0.1,0.6,0.3,0.9,0.5
    c0.2,0.1,0.4,0.2,0.6,0.4c0.8,0.5,1.6,1.2,2.3,1.9l54.3,54.3C350.9,251.9,350.9,260.1,345.9,265.2z" fill="white"/>
</svg> 